<svg width="20" height="20" viewBox="0 0 20 20" fill="none" xmlns="http://www.w3.org/2000/svg">
<g opacity="0.6" clip-path="url(#clip0_0_546)">
<path d="M10.0013 1.66602C12.2655 1.66602 12.548 1.67435 13.4363 1.71602C14.3238 1.75768 14.928 1.89685 15.4596 2.10352C16.0096 2.31518 16.473 2.60185 16.9363 3.06435C17.36 3.48093 17.6879 3.98484 17.8971 4.54102C18.103 5.07185 18.243 5.67685 18.2846 6.56435C18.3238 7.45268 18.3346 7.73518 18.3346 9.99935C18.3346 12.2635 18.3263 12.546 18.2846 13.4343C18.243 14.3218 18.103 14.926 17.8971 15.4577C17.6885 16.0142 17.3606 16.5182 16.9363 16.9344C16.5196 17.3579 16.0157 17.6858 15.4596 17.8952C14.9288 18.101 14.3238 18.241 13.4363 18.2827C12.548 18.3218 12.2655 18.3327 10.0013 18.3327C7.73714 18.3327 7.45464 18.3244 6.5663 18.2827C5.6788 18.241 5.07464 18.101 4.54297 17.8952C3.98657 17.6864 3.48257 17.3585 3.0663 16.9344C2.64247 16.5178 2.31458 16.0139 2.10547 15.4577C1.8988 14.9268 1.75964 14.3218 1.71797 13.4343C1.6788 12.546 1.66797 12.2635 1.66797 9.99935C1.66797 7.73518 1.6763 7.45268 1.71797 6.56435C1.75964 5.67602 1.8988 5.07268 2.10547 4.54102C2.314 3.9845 2.64197 3.48045 3.0663 3.06435C3.48269 2.64037 3.98666 2.31246 4.54297 2.10352C5.07464 1.89685 5.67797 1.75768 6.5663 1.71602C7.45464 1.67685 7.73714 1.66602 10.0013 1.66602ZM10.0013 5.83268C8.89623 5.83268 7.83643 6.27167 7.05502 7.05307C6.27362 7.83447 5.83464 8.89428 5.83464 9.99935C5.83464 11.1044 6.27362 12.1642 7.05502 12.9456C7.83643 13.727 8.89623 14.166 10.0013 14.166C11.1064 14.166 12.1662 13.727 12.9476 12.9456C13.729 12.1642 14.168 11.1044 14.168 9.99935C14.168 8.89428 13.729 7.83447 12.9476 7.05307C12.1662 6.27167 11.1064 5.83268 10.0013 5.83268ZM15.418 5.62435C15.418 5.34808 15.3082 5.08313 15.1129 4.88778C14.9175 4.69243 14.6526 4.58268 14.3763 4.58268C14.1 4.58268 13.8351 4.69243 13.6397 4.88778C13.4444 5.08313 13.3346 5.34808 13.3346 5.62435C13.3346 5.90062 13.4444 6.16557 13.6397 6.36092C13.8351 6.55627 14.1 6.66602 14.3763 6.66602C14.6526 6.66602 14.9175 6.55627 15.1129 6.36092C15.3082 6.16557 15.418 5.90062 15.418 5.62435ZM10.0013 7.49935C10.6643 7.49935 11.3002 7.76274 11.7691 8.23158C12.2379 8.70042 12.5013 9.33631 12.5013 9.99935C12.5013 10.6624 12.2379 11.2983 11.7691 11.7671C11.3002 12.236 10.6643 12.4993 10.0013 12.4993C9.33826 12.4993 8.70238 12.236 8.23354 11.7671C7.76469 11.2983 7.5013 10.6624 7.5013 9.99935C7.5013 9.33631 7.76469 8.70042 8.23354 8.23158C8.70238 7.76274 9.33826 7.49935 10.0013 7.49935Z" fill="#333333"/>
</g>
<defs>
<clipPath id="clip0_0_546">
<rect width="20" height="20" fill="white"/>
</clipPath>
</defs>
</svg>
