<svg width="152" height="32" viewBox="0 0 152 32" fill="none" xmlns="http://www.w3.org/2000/svg">
<path d="M46.136 25V9.66H40.104V6.8H55.548V9.66H49.516V25H46.136ZM62.8768 25.182C61.3341 25.182 59.9821 24.8787 58.8208 24.272C57.6768 23.648 56.7841 22.7987 56.1428 21.724C55.5188 20.6493 55.2068 19.4273 55.2068 18.058C55.2068 16.6713 55.5101 15.4493 56.1168 14.392C56.7408 13.3173 57.5901 12.4767 58.6648 11.87C59.7568 11.2633 60.9961 10.96 62.3828 10.96C63.7348 10.96 64.9394 11.2547 65.9968 11.844C67.0541 12.4333 67.8861 13.2653 68.4928 14.34C69.0994 15.4147 69.4028 16.68 69.4028 18.136C69.4028 18.2747 69.3941 18.4307 69.3768 18.604C69.3768 18.7773 69.3681 18.942 69.3508 19.098H57.7808V16.94H67.6348L66.3608 17.616C66.3781 16.8187 66.2134 16.1167 65.8668 15.51C65.5201 14.9033 65.0434 14.4267 64.4368 14.08C63.8474 13.7333 63.1628 13.56 62.3828 13.56C61.5854 13.56 60.8834 13.7333 60.2768 14.08C59.6874 14.4267 59.2194 14.912 58.8728 15.536C58.5434 16.1427 58.3788 16.862 58.3788 17.694V18.214C58.3788 19.046 58.5694 19.7827 58.9508 20.424C59.3321 21.0653 59.8694 21.5593 60.5628 21.906C61.2561 22.2527 62.0534 22.426 62.9548 22.426C63.7348 22.426 64.4368 22.3047 65.0608 22.062C65.6848 21.8193 66.2394 21.438 66.7248 20.918L68.4668 22.92C67.8428 23.648 67.0541 24.2113 66.1008 24.61C65.1648 24.9913 64.0901 25.182 62.8768 25.182ZM72.5246 25V5.708H75.7746V25H72.5246ZM80.0402 25V5.708H83.2902V25H80.0402ZM94.0818 25.182C92.5392 25.182 91.1872 24.8787 90.0258 24.272C88.8818 23.648 87.9892 22.7987 87.3478 21.724C86.7238 20.6493 86.4118 19.4273 86.4118 18.058C86.4118 16.6713 86.7152 15.4493 87.3218 14.392C87.9458 13.3173 88.7952 12.4767 89.8698 11.87C90.9618 11.2633 92.2012 10.96 93.5878 10.96C94.9398 10.96 96.1445 11.2547 97.2018 11.844C98.2592 12.4333 99.0912 13.2653 99.6978 14.34C100.304 15.4147 100.608 16.68 100.608 18.136C100.608 18.2747 100.599 18.4307 100.582 18.604C100.582 18.7773 100.573 18.942 100.556 19.098H88.9858V16.94H98.8398L97.5658 17.616C97.5832 16.8187 97.4185 16.1167 97.0718 15.51C96.7252 14.9033 96.2485 14.4267 95.6418 14.08C95.0525 13.7333 94.3678 13.56 93.5878 13.56C92.7905 13.56 92.0885 13.7333 91.4818 14.08C90.8925 14.4267 90.4245 14.912 90.0778 15.536C89.7485 16.1427 89.5838 16.862 89.5838 17.694V18.214C89.5838 19.046 89.7745 19.7827 90.1558 20.424C90.5372 21.0653 91.0745 21.5593 91.7678 21.906C92.4612 22.2527 93.2585 22.426 94.1598 22.426C94.9398 22.426 95.6418 22.3047 96.2658 22.062C96.8898 21.8193 97.4445 21.438 97.9298 20.918L99.6718 22.92C99.0478 23.648 98.2592 24.2113 97.3058 24.61C96.3698 24.9913 95.2952 25.182 94.0818 25.182ZM104.77 25.182C104.18 25.182 103.678 24.9827 103.262 24.584C102.846 24.168 102.638 23.648 102.638 23.024C102.638 22.3653 102.846 21.8453 103.262 21.464C103.678 21.0653 104.18 20.866 104.77 20.866C105.359 20.866 105.862 21.0653 106.278 21.464C106.694 21.8453 106.902 22.3653 106.902 23.024C106.902 23.648 106.694 24.168 106.278 24.584C105.862 24.9827 105.359 25.182 104.77 25.182ZM127.601 10.96C128.711 10.96 129.69 11.1767 130.539 11.61C131.406 12.0433 132.082 12.7107 132.567 13.612C133.053 14.496 133.295 15.64 133.295 17.044V25H130.045V17.46C130.045 16.2293 129.777 15.3107 129.239 14.704C128.702 14.0973 127.931 13.794 126.925 13.794C126.215 13.794 125.582 13.95 125.027 14.262C124.49 14.574 124.065 15.0333 123.753 15.64C123.459 16.2467 123.311 17.018 123.311 17.954V25H120.061V17.46C120.061 16.2293 119.793 15.3107 119.255 14.704C118.718 14.0973 117.947 13.794 116.941 13.794C116.231 13.794 115.598 13.95 115.043 14.262C114.506 14.574 114.081 15.0333 113.769 15.64C113.475 16.2467 113.327 17.018 113.327 17.954V25H110.077V11.116H113.171V14.808L112.625 13.716C113.093 12.8147 113.769 12.13 114.653 11.662C115.555 11.194 116.577 10.96 117.721 10.96C119.021 10.96 120.148 11.2807 121.101 11.922C122.072 12.5633 122.713 13.534 123.025 14.834L121.751 14.392C122.202 13.352 122.947 12.52 123.987 11.896C125.027 11.272 126.232 10.96 127.601 10.96ZM144 25.182C142.457 25.182 141.105 24.8787 139.944 24.272C138.8 23.648 137.907 22.7987 137.266 21.724C136.642 20.6493 136.33 19.4273 136.33 18.058C136.33 16.6713 136.633 15.4493 137.24 14.392C137.864 13.3173 138.713 12.4767 139.788 11.87C140.88 11.2633 142.119 10.96 143.506 10.96C144.858 10.96 146.062 11.2547 147.12 11.844C148.177 12.4333 149.009 13.2653 149.616 14.34C150.222 15.4147 150.526 16.68 150.526 18.136C150.526 18.2747 150.517 18.4307 150.5 18.604C150.5 18.7773 150.491 18.942 150.474 19.098H138.904V16.94H148.758L147.484 17.616C147.501 16.8187 147.336 16.1167 146.99 15.51C146.643 14.9033 146.166 14.4267 145.56 14.08C144.97 13.7333 144.286 13.56 143.506 13.56C142.708 13.56 142.006 13.7333 141.4 14.08C140.81 14.4267 140.342 14.912 139.996 15.536C139.666 16.1427 139.502 16.862 139.502 17.694V18.214C139.502 19.046 139.692 19.7827 140.074 20.424C140.455 21.0653 140.992 21.5593 141.686 21.906C142.379 22.2527 143.176 22.426 144.078 22.426C144.858 22.426 145.56 22.3047 146.184 22.062C146.808 21.8193 147.362 21.438 147.848 20.918L149.59 22.92C148.966 23.648 148.177 24.2113 147.224 24.61C146.288 24.9913 145.213 25.182 144 25.182Z" fill="black"/>
<mask id="path-2-inside-1_125_1090" fill="white">
<path fill-rule="evenodd" clip-rule="evenodd" d="M16 32C16.924 32 17.8297 31.9217 18.7108 31.7713C20.4246 31.4788 21.5485 29.8802 21.3982 28.1481C21.273 26.7048 21.0355 25.3521 20.7034 24.0852C20.6894 24.0318 20.6344 24.0003 20.5813 24.0153C18.8281 24.5103 17.2216 25.3964 15.9749 26.8289C15.3187 27.5828 14.7543 28.497 14.3207 29.601C13.8578 30.7793 14.734 32 16 32ZM15.2206 26.1723C13.0162 28.705 9.8915 31.1694 7.10247 29.2999C2.81937 26.4289 0 21.5437 0 16C0 15.7889 0.004089 15.5787 0.0121921 15.3696C0.204398 10.4089 5.76025 8.01223 10.0617 10.4907C11.6073 11.3812 13.1467 12.4803 14.5716 13.8139C17.0238 16.109 19.1423 19.1029 20.3704 22.94C20.3858 22.9879 20.3581 23.0392 20.3096 23.0529C18.4082 23.5897 16.6193 24.5653 15.2206 26.1723ZM26.2739 22.5721C23.6085 22.348 20.8302 20.8184 19.5177 18.4877C18.3303 16.3792 16.8628 14.5887 15.255 13.0838C10.4395 8.57679 8.23487 0.525841 14.8128 0.0433782C15.2048 0.0146283 15.6007 0 16 0C24.8366 0 32 7.16344 32 16C32 17.1209 31.8847 18.2149 31.6654 19.2708C31.1604 21.702 28.7483 22.7802 26.2739 22.5721ZM24.4801 23.5003C22.9435 23.5093 21.9717 24.8957 22.2001 26.4153C22.4855 28.3142 24.484 29.7028 25.9838 28.5037C26.3078 28.2447 26.6215 27.9733 26.9241 27.6904C28.5779 26.1443 27.5516 23.5993 25.2893 23.5135C25.0209 23.5033 24.7509 23.4987 24.4801 23.5003ZM23.6187 12.1906C24.8811 12.1906 25.9044 11.1672 25.9044 9.90485C25.9044 8.64249 24.8811 7.61914 23.6187 7.61914C22.3564 7.61914 21.333 8.64249 21.333 9.90485C21.333 11.1672 22.3564 12.1906 23.6187 12.1906Z"/>
</mask>
<path fill-rule="evenodd" clip-rule="evenodd" d="M16 32C16.924 32 17.8297 31.9217 18.7108 31.7713C20.4246 31.4788 21.5485 29.8802 21.3982 28.1481C21.273 26.7048 21.0355 25.3521 20.7034 24.0852C20.6894 24.0318 20.6344 24.0003 20.5813 24.0153C18.8281 24.5103 17.2216 25.3964 15.9749 26.8289C15.3187 27.5828 14.7543 28.497 14.3207 29.601C13.8578 30.7793 14.734 32 16 32ZM15.2206 26.1723C13.0162 28.705 9.8915 31.1694 7.10247 29.2999C2.81937 26.4289 0 21.5437 0 16C0 15.7889 0.004089 15.5787 0.0121921 15.3696C0.204398 10.4089 5.76025 8.01223 10.0617 10.4907C11.6073 11.3812 13.1467 12.4803 14.5716 13.8139C17.0238 16.109 19.1423 19.1029 20.3704 22.94C20.3858 22.9879 20.3581 23.0392 20.3096 23.0529C18.4082 23.5897 16.6193 24.5653 15.2206 26.1723ZM26.2739 22.5721C23.6085 22.348 20.8302 20.8184 19.5177 18.4877C18.3303 16.3792 16.8628 14.5887 15.255 13.0838C10.4395 8.57679 8.23487 0.525841 14.8128 0.0433782C15.2048 0.0146283 15.6007 0 16 0C24.8366 0 32 7.16344 32 16C32 17.1209 31.8847 18.2149 31.6654 19.2708C31.1604 21.702 28.7483 22.7802 26.2739 22.5721ZM24.4801 23.5003C22.9435 23.5093 21.9717 24.8957 22.2001 26.4153C22.4855 28.3142 24.484 29.7028 25.9838 28.5037C26.3078 28.2447 26.6215 27.9733 26.9241 27.6904C28.5779 26.1443 27.5516 23.5993 25.2893 23.5135C25.0209 23.5033 24.7509 23.4987 24.4801 23.5003ZM23.6187 12.1906C24.8811 12.1906 25.9044 11.1672 25.9044 9.90485C25.9044 8.64249 24.8811 7.61914 23.6187 7.61914C22.3564 7.61914 21.333 8.64249 21.333 9.90485C21.333 11.1672 22.3564 12.1906 23.6187 12.1906Z" fill="#333333"/>
<path d="M15.9749 26.8289L15.2206 26.1723H15.2206L15.9749 26.8289ZM14.5716 13.8139L15.255 13.0838L14.5716 13.8139ZM26.9241 27.6904L27.6071 28.4209L26.9241 27.6904ZM31.6654 19.2708L30.6863 19.0674L31.6654 19.2708ZM20.3704 22.94L21.3228 22.6352L20.3704 22.94ZM25.9838 28.5037L25.3594 27.7226L25.9838 28.5037ZM7.10247 29.2999L6.54567 30.1306L7.10247 29.2999ZM19.5177 18.4877L20.389 17.997L19.5177 18.4877ZM20.7034 24.0852L19.7361 24.3387L20.7034 24.0852ZM14.3207 29.601L15.2514 29.9666L14.3207 29.601ZM18.5426 30.7856C17.7168 30.9265 16.8674 31 16 31V33C16.9806 33 17.9426 32.9169 18.879 32.7571L18.5426 30.7856ZM19.7361 24.3387C20.0535 25.5496 20.2815 26.8464 20.4019 28.2345L22.3945 28.0616C22.2645 26.5633 22.0175 25.1545 21.6707 23.8316L19.7361 24.3387ZM20.3096 23.0529C18.4082 23.5897 16.6192 24.5654 15.2206 26.1723L16.7292 27.4854C17.8241 26.2275 19.2481 25.4308 20.853 24.9776L20.3096 23.0529ZM15.2206 26.1723C14.4863 27.016 13.8636 28.0295 13.3899 29.2354L15.2514 29.9666C15.645 28.9645 16.151 28.1496 16.7292 27.4854L15.2206 26.1723ZM7.65927 28.4693C3.64135 25.776 1 21.1962 1 16H-1C-1 21.8911 1.99739 27.0818 6.54567 30.1306L7.65927 28.4693ZM1 16C1 15.8018 1.00384 15.6045 1.01144 15.4083L-0.987058 15.3309C-0.995661 15.5529 -1 15.776 -1 16H1ZM9.5625 11.3571C11.0492 12.2137 12.5253 13.2683 13.8883 14.544L15.255 13.0838C13.7682 11.6923 12.1655 10.5487 10.561 9.6242L9.5625 11.3571ZM13.8883 14.544C16.231 16.7366 18.2478 19.5887 19.418 23.2448L21.3228 22.6352C20.0368 18.6172 17.8165 15.4813 15.255 13.0838L13.8883 14.544ZM15.9749 26.8289C17.2216 25.3965 18.8281 24.5103 20.5813 24.0153L20.0379 22.0905C17.9884 22.6692 16.0169 23.7342 14.4663 25.5158L15.9749 26.8289ZM20.389 17.997C19.1471 15.7917 17.6137 13.9218 15.9383 12.3537L14.5716 13.8139C16.1119 15.2555 17.5135 16.9668 18.6464 18.9784L20.389 17.997ZM14.886 1.0407C15.2536 1.01373 15.6251 1 16 1V-1C15.5763 -1 15.156 -0.984476 14.7397 -0.953943L14.886 1.0407ZM16 1C24.2843 1 31 7.71573 31 16H33C33 6.61116 25.3888 -1 16 -1V1ZM31 16C31 17.0522 30.8918 18.078 30.6863 19.0674L32.6445 19.4742C32.8776 18.3518 33 17.1897 33 16H31ZM26.2412 26.9599C25.9574 27.2253 25.6632 27.4797 25.3594 27.7226L26.6083 29.2847C26.9524 29.0096 27.2856 28.7214 27.6071 28.4209L26.2412 26.9599ZM25.3272 22.5142C25.0448 22.5035 24.7602 22.4987 24.4743 22.5003L24.486 24.5003C24.7417 24.4988 24.9971 24.5031 25.2514 24.5128L25.3272 22.5142ZM24.9044 9.90485C24.9044 10.6149 24.3288 11.1906 23.6187 11.1906V13.1906C25.4334 13.1906 26.9044 11.7195 26.9044 9.90485H24.9044ZM23.6187 8.61914C24.3288 8.61914 24.9044 9.19477 24.9044 9.90485H26.9044C26.9044 8.0902 25.4334 6.61914 23.6187 6.61914V8.61914ZM22.333 9.90485C22.333 9.19477 22.9086 8.61914 23.6187 8.61914V6.61914C21.8041 6.61914 20.333 8.0902 20.333 9.90485H22.333ZM23.6187 11.1906C22.9086 11.1906 22.333 10.6149 22.333 9.90485H20.333C20.333 11.7195 21.8041 13.1906 23.6187 13.1906V11.1906ZM27.6071 28.4209C28.7385 27.3631 28.9868 25.9031 28.5051 24.6863C28.0264 23.4771 26.8541 22.5721 25.3272 22.5142L25.2514 24.5128C25.9868 24.5407 26.4589 24.9511 26.6455 25.4224C26.829 25.8861 26.7636 26.4716 26.2412 26.9599L27.6071 28.4209ZM23.189 26.2666C23.0323 25.2244 23.6785 24.505 24.486 24.5003L24.4743 22.5003C22.2085 22.5136 20.9111 24.567 21.2112 26.5639L23.189 26.2666ZM30.6863 19.0674C30.3275 20.7947 28.5745 21.7621 26.3577 21.5756L26.1901 23.5686C28.9222 23.7984 31.9932 22.6094 32.6445 19.4742L30.6863 19.0674ZM15.9383 12.3537C13.6592 10.2206 12.0489 7.28339 11.7536 4.92987C11.6071 3.76252 11.7955 2.85396 12.2411 2.23505C12.6682 1.64198 13.4541 1.14572 14.886 1.0407L14.7397 -0.953943C12.8826 -0.817733 11.4773 -0.126697 10.6182 1.06632C9.77765 2.2335 9.58479 3.70983 9.76914 5.1789C10.1355 8.09823 12.0353 11.44 14.5716 13.8139L15.9383 12.3537ZM19.418 23.2448C19.2599 22.7509 19.5448 22.2297 20.0379 22.0905L20.5813 24.0153C21.1713 23.8487 21.5116 23.225 21.3228 22.6352L19.418 23.2448ZM21.2112 26.5639C21.3974 27.8027 22.138 28.887 23.1212 29.4782C24.1382 30.0897 25.4768 30.1894 26.6083 29.2847L25.3594 27.7226C24.9911 28.0171 24.5805 28.022 24.1519 27.7642C23.6895 27.4862 23.2882 26.9268 23.189 26.2666L21.2112 26.5639ZM1.01144 15.4083C1.09176 13.3353 2.27647 11.8124 3.91854 11.0468C5.57682 10.2737 7.69703 10.2823 9.5625 11.3571L10.561 9.6242C8.12496 8.22062 5.3165 8.18835 3.07343 9.23411C0.814154 10.2874 -0.87517 12.4431 -0.987058 15.3309L1.01144 15.4083ZM6.54567 30.1306C8.32838 31.3255 10.2097 31.0863 11.8261 30.2823C13.4059 29.4965 14.8411 28.1315 15.9749 26.8289L14.4663 25.5158C13.3957 26.7458 12.1663 27.8793 10.9354 28.4916C9.74108 29.0856 8.66559 29.1438 7.65927 28.4693L6.54567 30.1306ZM18.6464 18.9784C20.1491 21.6468 23.255 23.3218 26.1901 23.5686L26.3577 21.5756C23.962 21.3742 21.5114 19.99 20.389 17.997L18.6464 18.9784ZM21.6707 23.8316C21.515 23.2378 20.9023 22.8855 20.3096 23.0529L20.853 24.9776C20.3666 25.115 19.8637 24.8257 19.7361 24.3387L21.6707 23.8316ZM13.3899 29.2354C12.6552 31.1059 14.0685 33 16 33V31C15.3996 31 15.0605 30.4528 15.2514 29.9666L13.3899 29.2354ZM18.879 32.7571C21.1535 32.3689 22.5854 30.2624 22.3945 28.0616L20.4019 28.2345C20.5115 29.4979 19.6957 30.5888 18.5426 30.7856L18.879 32.7571Z" fill="#333333" mask="url(#path-2-inside-1_125_1090)"/>
</svg>
