<svg width="20" height="20" viewBox="0 0 20 20" fill="none" xmlns="http://www.w3.org/2000/svg">
<g clip-path="url(#clip0_125_1086)">
<path d="M5.41699 9.58301C4.92454 9.58301 4.4369 9.48601 3.98193 9.29756C3.52696 9.1091 3.11356 8.83288 2.76534 8.48466C2.41712 8.13644 2.1409 7.72304 1.95244 7.26807C1.76399 6.8131 1.66699 6.32546 1.66699 5.83301C1.66699 5.34055 1.76399 4.85292 1.95244 4.39794C2.1409 3.94297 2.41712 3.52958 2.76534 3.18136C3.11356 2.83314 3.52696 2.55691 3.98193 2.36846C4.4369 2.18 4.92454 2.08301 5.41699 2.08301C6.41155 2.08301 7.36538 2.4781 8.06864 3.18136C8.7719 3.88462 9.16699 4.83845 9.16699 5.83301C9.16699 6.82757 8.7719 7.7814 8.06864 8.48466C7.36538 9.18792 6.41155 9.58301 5.41699 9.58301ZM5.83366 17.9163C4.8391 17.9163 3.88527 17.5213 3.18201 16.818C2.47875 16.1147 2.08366 15.1609 2.08366 14.1663C2.08366 13.1718 2.47875 12.218 3.18201 11.5147C3.88527 10.8114 4.8391 10.4163 5.83366 10.4163C6.82822 10.4163 7.78205 10.8114 8.48531 11.5147C9.18857 12.218 9.58366 13.1718 9.58366 14.1663C9.58366 15.1609 9.18857 16.1147 8.48531 16.818C7.78205 17.5213 6.82822 17.9163 5.83366 17.9163ZM14.167 9.58301C13.6745 9.58301 13.1869 9.48601 12.7319 9.29756C12.277 9.1091 11.8636 8.83288 11.5153 8.48466C11.1671 8.13644 10.8909 7.72304 10.7024 7.26807C10.514 6.8131 10.417 6.32546 10.417 5.83301C10.417 5.34055 10.514 4.85292 10.7024 4.39794C10.8909 3.94297 11.1671 3.52958 11.5153 3.18136C11.8636 2.83314 12.277 2.55691 12.7319 2.36846C13.1869 2.18 13.6745 2.08301 14.167 2.08301C15.1616 2.08301 16.1154 2.4781 16.8186 3.18136C17.5219 3.88462 17.917 4.83845 17.917 5.83301C17.917 6.82757 17.5219 7.7814 16.8186 8.48466C16.1154 9.18792 15.1616 9.58301 14.167 9.58301ZM14.167 17.9163C13.1724 17.9163 12.2186 17.5213 11.5153 16.818C10.8121 16.1147 10.417 15.1609 10.417 14.1663C10.417 13.1718 10.8121 12.218 11.5153 11.5147C12.2186 10.8114 13.1724 10.4163 14.167 10.4163C15.1616 10.4163 16.1154 10.8114 16.8186 11.5147C17.5219 12.218 17.917 13.1718 17.917 14.1663C17.917 15.1609 17.5219 16.1147 16.8186 16.818C16.1154 17.5213 15.1616 17.9163 14.167 17.9163ZM5.41699 7.91634C5.96953 7.91634 6.49943 7.69685 6.89013 7.30615C7.28083 6.91545 7.50033 6.38554 7.50033 5.83301C7.50033 5.28047 7.28083 4.75057 6.89013 4.35987C6.49943 3.96917 5.96953 3.74967 5.41699 3.74967C4.86446 3.74967 4.33455 3.96917 3.94385 4.35987C3.55315 4.75057 3.33366 5.28047 3.33366 5.83301C3.33366 6.38554 3.55315 6.91545 3.94385 7.30615C4.33455 7.69685 4.86446 7.91634 5.41699 7.91634ZM5.83366 16.2497C6.38619 16.2497 6.9161 16.0302 7.3068 15.6395C7.6975 15.2488 7.91699 14.7189 7.91699 14.1663C7.91699 13.6138 7.6975 13.0839 7.3068 12.6932C6.9161 12.3025 6.38619 12.083 5.83366 12.083C5.28112 12.083 4.75122 12.3025 4.36052 12.6932C3.96982 13.0839 3.75033 13.6138 3.75033 14.1663C3.75033 14.7189 3.96982 15.2488 4.36052 15.6395C4.75122 16.0302 5.28112 16.2497 5.83366 16.2497ZM14.167 7.91634C14.7195 7.91634 15.2494 7.69685 15.6401 7.30615C16.0308 6.91545 16.2503 6.38554 16.2503 5.83301C16.2503 5.28047 16.0308 4.75057 15.6401 4.35987C15.2494 3.96917 14.7195 3.74967 14.167 3.74967C13.6145 3.74967 13.0846 3.96917 12.6939 4.35987C12.3032 4.75057 12.0837 5.28047 12.0837 5.83301C12.0837 6.38554 12.3032 6.91545 12.6939 7.30615C13.0846 7.69685 13.6145 7.91634 14.167 7.91634ZM14.167 16.2497C14.7195 16.2497 15.2494 16.0302 15.6401 15.6395C16.0308 15.2488 16.2503 14.7189 16.2503 14.1663C16.2503 13.6138 16.0308 13.0839 15.6401 12.6932C15.2494 12.3025 14.7195 12.083 14.167 12.083C13.6145 12.083 13.0846 12.3025 12.6939 12.6932C12.3032 13.0839 12.0837 13.6138 12.0837 14.1663C12.0837 14.7189 12.3032 15.2488 12.6939 15.6395C13.0846 16.0302 13.6145 16.2497 14.167 16.2497Z" fill="black"/>
</g>
<defs>
<clipPath id="clip0_125_1086">
<rect width="20" height="20" rx="10" fill="white"/>
</clipPath>
</defs>
</svg>
