<svg width="22" height="22" viewBox="0 0 22 22" fill="none" xmlns="http://www.w3.org/2000/svg">
<g clip-path="url(#clip0_125_984)">
<path d="M10.9997 10.0833V7.33325L14.6663 10.9999L10.9997 14.6666V11.9166H7.33301V10.0833H10.9997ZM10.9997 1.83325C16.0597 1.83325 20.1663 5.93992 20.1663 10.9999C20.1663 16.0599 16.0597 20.1666 10.9997 20.1666C5.93967 20.1666 1.83301 16.0599 1.83301 10.9999C1.83301 5.93992 5.93967 1.83325 10.9997 1.83325ZM10.9997 18.3333C15.0513 18.3333 18.333 15.0516 18.333 10.9999C18.333 6.94825 15.0513 3.66659 10.9997 3.66659C6.94801 3.66659 3.66634 6.94825 3.66634 10.9999C3.66634 15.0516 6.94801 18.3333 10.9997 18.3333Z" fill="#333333"/>
</g>
<defs>
<clipPath id="clip0_125_984">
<rect width="22" height="22" fill="white"/>
</clipPath>
</defs>
</svg>
