<svg width="24" height="24" viewBox="0 0 24 24" fill="none" xmlns="http://www.w3.org/2000/svg">
<g clip-path="url(#clip0_125_1111)">
<path d="M4.00081 6.41384L0.757812 3.17184L2.17281 1.75684L5.41481 4.99984H20.6568C20.8127 4.99983 20.9664 5.03625 21.1057 5.1062C21.245 5.17616 21.366 5.2777 21.459 5.40273C21.5521 5.52776 21.6147 5.67282 21.6417 5.82632C21.6688 5.97983 21.6595 6.13753 21.6148 6.28684L19.2148 14.2868C19.1531 14.4929 19.0265 14.6736 18.8539 14.802C18.6813 14.9305 18.4719 14.9999 18.2568 14.9998H6.00081V16.9998H17.0008V18.9998H5.00081C4.7356 18.9998 4.48124 18.8945 4.29371 18.7069C4.10617 18.5194 4.00081 18.2651 4.00081 17.9998V6.41384ZM6.00081 6.99984V12.9998H17.5128L19.3128 6.99984H6.00081ZM5.50081 22.9998C5.10299 22.9998 4.72146 22.8418 4.44015 22.5605C4.15885 22.2792 4.00081 21.8977 4.00081 21.4998C4.00081 21.102 4.15885 20.7205 4.44015 20.4392C4.72146 20.1579 5.10299 19.9998 5.50081 19.9998C5.89864 19.9998 6.28017 20.1579 6.56147 20.4392C6.84278 20.7205 7.00081 21.102 7.00081 21.4998C7.00081 21.8977 6.84278 22.2792 6.56147 22.5605C6.28017 22.8418 5.89864 22.9998 5.50081 22.9998ZM17.5008 22.9998C17.103 22.9998 16.7215 22.8418 16.4402 22.5605C16.1588 22.2792 16.0008 21.8977 16.0008 21.4998C16.0008 21.102 16.1588 20.7205 16.4402 20.4392C16.7215 20.1579 17.103 19.9998 17.5008 19.9998C17.8986 19.9998 18.2802 20.1579 18.5615 20.4392C18.8428 20.7205 19.0008 21.102 19.0008 21.4998C19.0008 21.8977 18.8428 22.2792 18.5615 22.5605C18.2802 22.8418 17.8986 22.9998 17.5008 22.9998Z" fill="black"/>
</g>
<defs>
<clipPath id="clip0_125_1111">
<rect width="24" height="24" fill="white"/>
</clipPath>
</defs>
</svg>
