<svg width="20" height="20" viewBox="0 0 20 20" fill="none" xmlns="http://www.w3.org/2000/svg">
<g opacity="0.6" clip-path="url(#clip0_0_541)">
<path d="M10.0013 18.3327C5.3988 18.3327 1.66797 14.6018 1.66797 9.99935C1.66797 5.39685 5.3988 1.66602 10.0013 1.66602C14.6038 1.66602 18.3346 5.39685 18.3346 9.99935C18.3346 14.6018 14.6038 18.3327 10.0013 18.3327ZM7.40964 10.9743L7.42047 10.9685L8.14547 13.3602C8.2388 13.6194 8.36714 13.666 8.52297 13.6444C8.67964 13.6235 8.76214 13.5393 8.86464 13.441L9.85464 12.4844L11.9796 14.0577C12.368 14.2719 12.6471 14.161 12.7438 13.6977L14.1246 7.17935C14.2771 6.57268 14.0105 6.32935 13.5396 6.52268L5.4288 9.65602C4.87547 9.87768 4.8788 10.1877 5.3288 10.3252L7.40964 10.9752V10.9743Z" fill="#333333"/>
</g>
<defs>
<clipPath id="clip0_0_541">
<rect width="20" height="20" fill="white"/>
</clipPath>
</defs>
</svg>
